<mxfile host="app.diagrams.net" modified="2021-11-09T12:50:47.198Z" agent="5.0 (Windows NT 10.0; Win64; x64) AppleWebKit/537.36 (KHTML, like Gecko) Chrome/95.0.4638.69 Safari/537.36" etag="EFgWYqUHl-qpNj8R59jx" version="15.7.0" type="github">
  <diagram id="R2lEEEUBdFMjLlhIrx00" name="Page-1">
    <mxGraphModel dx="1564" dy="946" grid="0" gridSize="10" guides="0" tooltips="1" connect="1" arrows="1" fold="1" page="1" pageScale="1" pageWidth="850" pageHeight="1100" math="0" shadow="0" extFonts="Permanent Marker^https://fonts.googleapis.com/css?family=Permanent+Marker">
      <root>
        <mxCell id="0" />
        <mxCell id="1" parent="0" />
        <mxCell id="i4WCTxMJBartO7POtLtT-105" style="edgeStyle=orthogonalEdgeStyle;curved=1;rounded=0;orthogonalLoop=1;jettySize=auto;html=1;exitX=0.5;exitY=1;exitDx=0;exitDy=0;entryX=0;entryY=0.5;entryDx=0;entryDy=0;endArrow=none;endFill=0;" edge="1" parent="1" source="i4WCTxMJBartO7POtLtT-1" target="i4WCTxMJBartO7POtLtT-47">
          <mxGeometry relative="1" as="geometry">
            <Array as="points">
              <mxPoint x="260" y="657" />
            </Array>
          </mxGeometry>
        </mxCell>
        <mxCell id="i4WCTxMJBartO7POtLtT-106" value="M" style="edgeLabel;html=1;align=center;verticalAlign=middle;resizable=0;points=[];" vertex="1" connectable="0" parent="i4WCTxMJBartO7POtLtT-105">
          <mxGeometry x="-0.8945" y="1" relative="1" as="geometry">
            <mxPoint as="offset" />
          </mxGeometry>
        </mxCell>
        <mxCell id="i4WCTxMJBartO7POtLtT-107" value="M" style="edgeLabel;html=1;align=center;verticalAlign=middle;resizable=0;points=[];" vertex="1" connectable="0" parent="i4WCTxMJBartO7POtLtT-105">
          <mxGeometry x="0.9067" y="4" relative="1" as="geometry">
            <mxPoint as="offset" />
          </mxGeometry>
        </mxCell>
        <mxCell id="i4WCTxMJBartO7POtLtT-1" value="USER" style="rounded=1;arcSize=10;whiteSpace=wrap;html=1;align=center;fillColor=#f5f5f5;strokeColor=#666666;fontColor=#333333;" vertex="1" parent="1">
          <mxGeometry x="210" y="470" width="100" height="40" as="geometry" />
        </mxCell>
        <mxCell id="i4WCTxMJBartO7POtLtT-87" style="edgeStyle=orthogonalEdgeStyle;curved=1;rounded=0;orthogonalLoop=1;jettySize=auto;html=1;exitX=1;exitY=1;exitDx=0;exitDy=0;entryX=0.25;entryY=0;entryDx=0;entryDy=0;endArrow=none;endFill=0;" edge="1" parent="1" source="i4WCTxMJBartO7POtLtT-2" target="i4WCTxMJBartO7POtLtT-1">
          <mxGeometry relative="1" as="geometry" />
        </mxCell>
        <mxCell id="i4WCTxMJBartO7POtLtT-2" value="ID" style="ellipse;whiteSpace=wrap;html=1;align=center;fontStyle=4;" vertex="1" parent="1">
          <mxGeometry x="125" y="400" width="100" height="40" as="geometry" />
        </mxCell>
        <mxCell id="i4WCTxMJBartO7POtLtT-88" style="edgeStyle=orthogonalEdgeStyle;curved=1;rounded=0;orthogonalLoop=1;jettySize=auto;html=1;exitX=0.5;exitY=1;exitDx=0;exitDy=0;endArrow=none;endFill=0;" edge="1" parent="1" source="i4WCTxMJBartO7POtLtT-7" target="i4WCTxMJBartO7POtLtT-1">
          <mxGeometry relative="1" as="geometry" />
        </mxCell>
        <mxCell id="i4WCTxMJBartO7POtLtT-7" value="AGE" style="ellipse;whiteSpace=wrap;html=1;align=center;dashed=1;" vertex="1" parent="1">
          <mxGeometry x="240" y="390" width="100" height="40" as="geometry" />
        </mxCell>
        <mxCell id="i4WCTxMJBartO7POtLtT-9" value="PINS" style="rounded=1;arcSize=10;whiteSpace=wrap;html=1;align=center;fillColor=#f5f5f5;strokeColor=#666666;fontColor=#333333;" vertex="1" parent="1">
          <mxGeometry x="897" y="464" width="100" height="40" as="geometry" />
        </mxCell>
        <mxCell id="i4WCTxMJBartO7POtLtT-85" style="edgeStyle=orthogonalEdgeStyle;curved=1;rounded=0;orthogonalLoop=1;jettySize=auto;html=1;exitX=1;exitY=0.5;exitDx=0;exitDy=0;entryX=0;entryY=0.5;entryDx=0;entryDy=0;endArrow=none;endFill=0;" edge="1" parent="1" source="i4WCTxMJBartO7POtLtT-10" target="i4WCTxMJBartO7POtLtT-1">
          <mxGeometry relative="1" as="geometry" />
        </mxCell>
        <mxCell id="i4WCTxMJBartO7POtLtT-10" value="Attribute" style="ellipse;whiteSpace=wrap;html=1;align=center;" vertex="1" parent="1">
          <mxGeometry x="55" y="441" width="100" height="40" as="geometry" />
        </mxCell>
        <mxCell id="i4WCTxMJBartO7POtLtT-22" value="" style="endArrow=none;html=1;rounded=0;dashed=1;dashPattern=1 2;exitX=1;exitY=0.5;exitDx=0;exitDy=0;startArrow=none;edgeStyle=orthogonalEdgeStyle;curved=1;entryX=0;entryY=0;entryDx=0;entryDy=0;" edge="1" parent="1" source="i4WCTxMJBartO7POtLtT-17" target="i4WCTxMJBartO7POtLtT-9">
          <mxGeometry relative="1" as="geometry">
            <mxPoint x="460" y="840" as="sourcePoint" />
            <mxPoint x="620" y="840" as="targetPoint" />
          </mxGeometry>
        </mxCell>
        <mxCell id="i4WCTxMJBartO7POtLtT-23" value="N" style="resizable=0;html=1;align=right;verticalAlign=bottom;" connectable="0" vertex="1" parent="i4WCTxMJBartO7POtLtT-22">
          <mxGeometry x="1" relative="1" as="geometry">
            <mxPoint x="-30" y="-6" as="offset" />
          </mxGeometry>
        </mxCell>
        <mxCell id="i4WCTxMJBartO7POtLtT-17" value="MAKES" style="shape=rhombus;perimeter=rhombusPerimeter;whiteSpace=wrap;html=1;align=center;fillColor=#ffcccc;strokeColor=#36393d;" vertex="1" parent="1">
          <mxGeometry x="610" y="410" width="80" height="40" as="geometry" />
        </mxCell>
        <mxCell id="i4WCTxMJBartO7POtLtT-24" value="" style="endArrow=none;html=1;rounded=0;dashed=1;dashPattern=1 2;exitX=1;exitY=0.25;exitDx=0;exitDy=0;entryX=0;entryY=0.5;entryDx=0;entryDy=0;edgeStyle=orthogonalEdgeStyle;curved=1;" edge="1" parent="1" source="i4WCTxMJBartO7POtLtT-1" target="i4WCTxMJBartO7POtLtT-17">
          <mxGeometry relative="1" as="geometry">
            <mxPoint x="510" y="780" as="sourcePoint" />
            <mxPoint x="610" y="440" as="targetPoint" />
            <Array as="points">
              <mxPoint x="310" y="450" />
              <mxPoint x="487" y="450" />
              <mxPoint x="487" y="430" />
            </Array>
          </mxGeometry>
        </mxCell>
        <mxCell id="i4WCTxMJBartO7POtLtT-26" value="SAVE" style="shape=rhombus;perimeter=rhombusPerimeter;whiteSpace=wrap;html=1;align=center;fillColor=#ffcccc;strokeColor=#36393d;" vertex="1" parent="1">
          <mxGeometry x="600" y="470" width="80" height="40" as="geometry" />
        </mxCell>
        <mxCell id="i4WCTxMJBartO7POtLtT-91" style="edgeStyle=orthogonalEdgeStyle;curved=1;rounded=0;orthogonalLoop=1;jettySize=auto;html=1;exitX=0;exitY=0.5;exitDx=0;exitDy=0;entryX=1;entryY=0.25;entryDx=0;entryDy=0;endArrow=none;endFill=0;" edge="1" parent="1" target="i4WCTxMJBartO7POtLtT-9">
          <mxGeometry relative="1" as="geometry">
            <mxPoint x="1058.9999999999998" y="435" as="sourcePoint" />
            <mxPoint x="1010.4000000000001" y="464.8800000000001" as="targetPoint" />
          </mxGeometry>
        </mxCell>
        <mxCell id="i4WCTxMJBartO7POtLtT-43" value="TITLE" style="ellipse;whiteSpace=wrap;html=1;align=center;" vertex="1" parent="1">
          <mxGeometry x="1060" y="415" width="100" height="40" as="geometry" />
        </mxCell>
        <mxCell id="i4WCTxMJBartO7POtLtT-90" style="edgeStyle=orthogonalEdgeStyle;curved=1;rounded=0;orthogonalLoop=1;jettySize=auto;html=1;entryX=0.466;entryY=-0.003;entryDx=0;entryDy=0;entryPerimeter=0;endArrow=none;endFill=0;exitX=0;exitY=0.5;exitDx=0;exitDy=0;" edge="1" parent="1" source="i4WCTxMJBartO7POtLtT-44" target="i4WCTxMJBartO7POtLtT-9">
          <mxGeometry relative="1" as="geometry">
            <mxPoint x="1015" y="464" as="sourcePoint" />
            <Array as="points">
              <mxPoint x="953" y="440" />
              <mxPoint x="976" y="440" />
              <mxPoint x="976" y="460" />
              <mxPoint x="944" y="460" />
            </Array>
          </mxGeometry>
        </mxCell>
        <mxCell id="i4WCTxMJBartO7POtLtT-44" value="ID" style="ellipse;whiteSpace=wrap;html=1;align=center;fontStyle=4;" vertex="1" parent="1">
          <mxGeometry x="982" y="376" width="100" height="40" as="geometry" />
        </mxCell>
        <mxCell id="i4WCTxMJBartO7POtLtT-109" value="" style="edgeStyle=orthogonalEdgeStyle;curved=1;rounded=0;orthogonalLoop=1;jettySize=auto;html=1;endArrow=none;endFill=0;entryX=0.5;entryY=1;entryDx=0;entryDy=0;startArrow=none;" edge="1" parent="1" source="i4WCTxMJBartO7POtLtT-50" target="i4WCTxMJBartO7POtLtT-9">
          <mxGeometry relative="1" as="geometry">
            <mxPoint x="1033" y="616" as="targetPoint" />
          </mxGeometry>
        </mxCell>
        <mxCell id="i4WCTxMJBartO7POtLtT-110" value="M" style="edgeLabel;html=1;align=center;verticalAlign=middle;resizable=0;points=[];" vertex="1" connectable="0" parent="i4WCTxMJBartO7POtLtT-109">
          <mxGeometry x="0.8589" y="3" relative="1" as="geometry">
            <mxPoint x="3" y="-13" as="offset" />
          </mxGeometry>
        </mxCell>
        <mxCell id="i4WCTxMJBartO7POtLtT-113" style="edgeStyle=orthogonalEdgeStyle;curved=1;rounded=0;orthogonalLoop=1;jettySize=auto;html=1;exitX=0.5;exitY=1;exitDx=0;exitDy=0;entryX=0.5;entryY=0;entryDx=0;entryDy=0;endArrow=none;endFill=0;" edge="1" parent="1" source="i4WCTxMJBartO7POtLtT-47" target="i4WCTxMJBartO7POtLtT-49">
          <mxGeometry relative="1" as="geometry" />
        </mxCell>
        <mxCell id="i4WCTxMJBartO7POtLtT-47" value="TOPICS" style="rounded=1;arcSize=10;whiteSpace=wrap;html=1;align=center;fillColor=#f5f5f5;strokeColor=#666666;shadow=0;sketch=0;glass=0;fontColor=#333333;" vertex="1" parent="1">
          <mxGeometry x="595" y="637" width="100" height="40" as="geometry" />
        </mxCell>
        <mxCell id="i4WCTxMJBartO7POtLtT-114" style="edgeStyle=orthogonalEdgeStyle;curved=1;rounded=0;orthogonalLoop=1;jettySize=auto;html=1;exitX=1;exitY=0;exitDx=0;exitDy=0;entryX=0;entryY=1;entryDx=0;entryDy=0;endArrow=none;endFill=0;" edge="1" parent="1" source="i4WCTxMJBartO7POtLtT-48" target="i4WCTxMJBartO7POtLtT-47">
          <mxGeometry relative="1" as="geometry" />
        </mxCell>
        <mxCell id="i4WCTxMJBartO7POtLtT-48" value="ID" style="ellipse;whiteSpace=wrap;html=1;align=center;fontStyle=4;fillColor=#dae8fc;strokeColor=#6c8ebf;" vertex="1" parent="1">
          <mxGeometry x="545" y="700" width="50" height="20" as="geometry" />
        </mxCell>
        <mxCell id="i4WCTxMJBartO7POtLtT-49" value="NAME" style="ellipse;whiteSpace=wrap;html=1;align=center;fillColor=#dae8fc;strokeColor=#6c8ebf;" vertex="1" parent="1">
          <mxGeometry x="610" y="700" width="60" height="20" as="geometry" />
        </mxCell>
        <mxCell id="i4WCTxMJBartO7POtLtT-60" value="" style="endArrow=none;html=1;rounded=0;dashed=1;dashPattern=1 2;exitX=1;exitY=0.5;exitDx=0;exitDy=0;startArrow=none;edgeStyle=orthogonalEdgeStyle;curved=1;" edge="1" parent="1" source="i4WCTxMJBartO7POtLtT-59" target="i4WCTxMJBartO7POtLtT-9">
          <mxGeometry relative="1" as="geometry">
            <mxPoint x="530" y="500" as="sourcePoint" />
            <mxPoint x="750" y="700" as="targetPoint" />
          </mxGeometry>
        </mxCell>
        <mxCell id="i4WCTxMJBartO7POtLtT-61" value="N" style="resizable=0;html=1;align=right;verticalAlign=bottom;" connectable="0" vertex="1" parent="i4WCTxMJBartO7POtLtT-60">
          <mxGeometry x="1" relative="1" as="geometry">
            <mxPoint y="-2" as="offset" />
          </mxGeometry>
        </mxCell>
        <mxCell id="i4WCTxMJBartO7POtLtT-59" value="react" style="shape=rhombus;perimeter=rhombusPerimeter;whiteSpace=wrap;html=1;align=center;fillColor=#ffcccc;strokeColor=#36393d;" vertex="1" parent="1">
          <mxGeometry x="586" y="360" width="90" height="30" as="geometry" />
        </mxCell>
        <mxCell id="i4WCTxMJBartO7POtLtT-64" value="boards" style="rounded=1;arcSize=0;whiteSpace=wrap;html=1;align=center;" vertex="1" parent="1">
          <mxGeometry x="330" y="867" width="100" height="40" as="geometry" />
        </mxCell>
        <mxCell id="i4WCTxMJBartO7POtLtT-67" value="" style="endArrow=none;html=1;rounded=0;dashed=1;dashPattern=1 2;entryX=0;entryY=1;entryDx=0;entryDy=0;exitX=1;exitY=0.5;exitDx=0;exitDy=0;startArrow=none;edgeStyle=orthogonalEdgeStyle;curved=1;" edge="1" parent="1" source="i4WCTxMJBartO7POtLtT-71" target="i4WCTxMJBartO7POtLtT-9">
          <mxGeometry relative="1" as="geometry">
            <mxPoint x="670" y="690" as="sourcePoint" />
            <mxPoint x="830" y="690" as="targetPoint" />
          </mxGeometry>
        </mxCell>
        <mxCell id="i4WCTxMJBartO7POtLtT-69" value="N" style="resizable=0;html=1;align=right;verticalAlign=bottom;" connectable="0" vertex="1" parent="i4WCTxMJBartO7POtLtT-67">
          <mxGeometry x="1" relative="1" as="geometry">
            <mxPoint x="-20" y="15" as="offset" />
          </mxGeometry>
        </mxCell>
        <mxCell id="i4WCTxMJBartO7POtLtT-100" value="Text" style="edgeLabel;html=1;align=center;verticalAlign=middle;resizable=0;points=[];" vertex="1" connectable="0" parent="i4WCTxMJBartO7POtLtT-67">
          <mxGeometry x="-0.5295" y="-11" relative="1" as="geometry">
            <mxPoint x="-1" as="offset" />
          </mxGeometry>
        </mxCell>
        <mxCell id="i4WCTxMJBartO7POtLtT-71" value="comment" style="shape=rhombus;perimeter=rhombusPerimeter;whiteSpace=wrap;html=1;align=center;fillColor=#ffcccc;strokeColor=#36393d;" vertex="1" parent="1">
          <mxGeometry x="595" y="540" width="85" height="40" as="geometry" />
        </mxCell>
        <mxCell id="i4WCTxMJBartO7POtLtT-72" value="" style="endArrow=none;html=1;rounded=0;dashed=1;dashPattern=1 2;entryX=0;entryY=0.5;entryDx=0;entryDy=0;exitX=1;exitY=1;exitDx=0;exitDy=0;edgeStyle=orthogonalEdgeStyle;curved=1;" edge="1" parent="1" source="i4WCTxMJBartO7POtLtT-1" target="i4WCTxMJBartO7POtLtT-71">
          <mxGeometry relative="1" as="geometry">
            <mxPoint x="314" y="526" as="sourcePoint" />
            <mxPoint x="950" y="505" as="targetPoint" />
          </mxGeometry>
        </mxCell>
        <mxCell id="i4WCTxMJBartO7POtLtT-73" value="M" style="resizable=0;html=1;align=left;verticalAlign=bottom;" connectable="0" vertex="1" parent="i4WCTxMJBartO7POtLtT-72">
          <mxGeometry x="-1" relative="1" as="geometry">
            <mxPoint x="6" y="18" as="offset" />
          </mxGeometry>
        </mxCell>
        <mxCell id="i4WCTxMJBartO7POtLtT-75" value="" style="endArrow=none;html=1;rounded=0;dashed=1;dashPattern=1 2;entryX=1;entryY=0;entryDx=0;entryDy=0;exitX=0;exitY=0.5;exitDx=0;exitDy=0;edgeStyle=orthogonalEdgeStyle;curved=1;" edge="1" parent="1" source="i4WCTxMJBartO7POtLtT-59" target="i4WCTxMJBartO7POtLtT-1">
          <mxGeometry relative="1" as="geometry">
            <mxPoint x="490" y="540" as="sourcePoint" />
            <mxPoint x="650" y="540" as="targetPoint" />
          </mxGeometry>
        </mxCell>
        <mxCell id="i4WCTxMJBartO7POtLtT-76" value="N" style="resizable=0;html=1;align=right;verticalAlign=bottom;" connectable="0" vertex="1" parent="i4WCTxMJBartO7POtLtT-75">
          <mxGeometry x="1" relative="1" as="geometry">
            <mxPoint x="19" y="2" as="offset" />
          </mxGeometry>
        </mxCell>
        <mxCell id="i4WCTxMJBartO7POtLtT-77" value="" style="endArrow=none;html=1;rounded=0;dashed=1;dashPattern=1 2;curved=1;entryX=1;entryY=0.75;entryDx=0;entryDy=0;exitX=0;exitY=0.5;exitDx=0;exitDy=0;edgeStyle=orthogonalEdgeStyle;" edge="1" parent="1" source="i4WCTxMJBartO7POtLtT-26" target="i4WCTxMJBartO7POtLtT-1">
          <mxGeometry relative="1" as="geometry">
            <mxPoint x="500" y="500" as="sourcePoint" />
            <mxPoint x="660" y="500" as="targetPoint" />
          </mxGeometry>
        </mxCell>
        <mxCell id="i4WCTxMJBartO7POtLtT-78" value="N" style="resizable=0;html=1;align=right;verticalAlign=bottom;" connectable="0" vertex="1" parent="i4WCTxMJBartO7POtLtT-77">
          <mxGeometry x="1" relative="1" as="geometry">
            <mxPoint x="39" y="8" as="offset" />
          </mxGeometry>
        </mxCell>
        <mxCell id="i4WCTxMJBartO7POtLtT-79" value="" style="endArrow=none;html=1;rounded=0;dashed=1;dashPattern=1 2;curved=1;entryX=0;entryY=0.5;entryDx=0;entryDy=0;edgeStyle=orthogonalEdgeStyle;" edge="1" parent="1" target="i4WCTxMJBartO7POtLtT-9">
          <mxGeometry relative="1" as="geometry">
            <mxPoint x="680" y="489.58" as="sourcePoint" />
            <mxPoint x="950" y="490" as="targetPoint" />
          </mxGeometry>
        </mxCell>
        <mxCell id="i4WCTxMJBartO7POtLtT-80" value="N" style="resizable=0;html=1;align=right;verticalAlign=bottom;" connectable="0" vertex="1" parent="i4WCTxMJBartO7POtLtT-79">
          <mxGeometry x="1" relative="1" as="geometry">
            <mxPoint x="-30" y="10" as="offset" />
          </mxGeometry>
        </mxCell>
        <mxCell id="i4WCTxMJBartO7POtLtT-81" value="messages" style="rounded=1;arcSize=10;whiteSpace=wrap;html=1;align=center;" vertex="1" parent="1">
          <mxGeometry x="720" y="790" width="100" height="40" as="geometry" />
        </mxCell>
        <mxCell id="i4WCTxMJBartO7POtLtT-89" value="follows" style="shape=rhombus;perimeter=rhombusPerimeter;whiteSpace=wrap;html=1;align=center;" vertex="1" parent="1">
          <mxGeometry x="98" y="815" width="120" height="60" as="geometry" />
        </mxCell>
        <mxCell id="i4WCTxMJBartO7POtLtT-50" value="HAS" style="shape=rhombus;perimeter=rhombusPerimeter;whiteSpace=wrap;html=1;align=center;" vertex="1" parent="1">
          <mxGeometry x="856" y="605" width="80" height="40" as="geometry" />
        </mxCell>
        <mxCell id="i4WCTxMJBartO7POtLtT-121" value="" style="edgeStyle=entityRelationEdgeStyle;rounded=0;orthogonalLoop=1;jettySize=auto;html=1;endArrow=none;endFill=0;entryX=0;entryY=0.5;entryDx=0;entryDy=0;elbow=vertical;" edge="1" parent="1" source="i4WCTxMJBartO7POtLtT-47" target="i4WCTxMJBartO7POtLtT-50">
          <mxGeometry relative="1" as="geometry">
            <mxPoint x="695" y="657.0344827586208" as="sourcePoint" />
            <mxPoint x="947" y="504" as="targetPoint" />
          </mxGeometry>
        </mxCell>
        <mxCell id="i4WCTxMJBartO7POtLtT-123" value="M" style="edgeLabel;html=1;align=center;verticalAlign=middle;resizable=0;points=[];" vertex="1" connectable="0" parent="i4WCTxMJBartO7POtLtT-121">
          <mxGeometry x="-0.8994" relative="1" as="geometry">
            <mxPoint y="-4" as="offset" />
          </mxGeometry>
        </mxCell>
      </root>
    </mxGraphModel>
  </diagram>
</mxfile>
